<svg version="1.1"
      xmlns="http://www.w3.org/2000/svg"
      xmlns:xlink="http://www.w3.org/1999/xlink"  id="snapshot-72504" width="250" height="250" viewBox="0 0 250 250"><desc>This image was made on Patterninja.com</desc><defs>
<!-- image 22854 -->
<g id="transformed-22854" data-image="22854" transform="translate(200, 50) rotate(0, 25, 25)"><g><svg version="1.1" width="50px" height="50px" viewBox="0 0 50 50"><g id="original-22854"><svg xmlns="http://www.w3.org/2000/svg" viewBox="0 0 1000 1000" xmlns:xlink="http://www.w3.org/1999/xlink" version="1.1" preserveAspectRatio="xMidYMid meet">
  <path d="M127.35 13.99C71.48 25.98 25.56 72.15 13.83 128.53 10.77 143.84 10 198.94 10 501.25c0 345.16.26 355.37 5.1 374.5 7.14 28.06 18.62 48.47 39.54 69.39 20.66 20.92 45.66 34.7 73.98 40.56 26.79 5.61 715.58 5.61 742.37 0 56.89-11.99 102.81-57.91 114.8-114.8 5.61-26.79 5.61-715.58 0-742.37-5.87-28.32-19.64-53.32-40.56-73.98-20.92-20.92-41.33-32.4-69.39-39.54-19.13-4.85-29.08-5.1-375.77-4.85-295.17 0-358.94.77-372.72 3.83z" fill="rgba(118, 73, 188, 0.4)" stroke="none"/>
</svg>
</g></svg></g></g>
<!-- /image 22854 -->

<!-- image 64598 -->
<g id="transformed-64598" data-image="64598" transform="translate(150, 50) rotate(0, 25, 25)"><g><svg version="1.1" width="50px" height="50px" viewBox="0 0 50 50"><g id="original-64598"><svg xmlns="http://www.w3.org/2000/svg" viewBox="0 0 1000 1000" xmlns:xlink="http://www.w3.org/1999/xlink" version="1.1" preserveAspectRatio="xMidYMid meet">
  <path d="M127.35 13.99C71.48 25.98 25.56 72.15 13.83 128.53 10.77 143.84 10 198.94 10 501.25c0 345.16.26 355.37 5.1 374.5 7.14 28.06 18.62 48.47 39.54 69.39 20.66 20.92 45.66 34.7 73.98 40.56 26.79 5.61 715.58 5.61 742.37 0 56.89-11.99 102.81-57.91 114.8-114.8 5.61-26.79 5.61-715.58 0-742.37-5.87-28.32-19.64-53.32-40.56-73.98-20.92-20.92-41.33-32.4-69.39-39.54-19.13-4.85-29.08-5.1-375.77-4.85-295.17 0-358.94.77-372.72 3.83z" fill="rgba(118, 73, 188, 0.2)" stroke="none"/>
</svg>
</g></svg></g></g>
<!-- /image 64598 -->

<!-- image 01131 -->
<g id="transformed-01131" data-image="01131" transform="translate(100, 50) rotate(0, 25, 25)"><g><svg version="1.1" width="50px" height="50px" viewBox="0 0 50 50"><g id="original-01131"><svg xmlns="http://www.w3.org/2000/svg" viewBox="0 0 1000 1000" xmlns:xlink="http://www.w3.org/1999/xlink" version="1.1" preserveAspectRatio="xMidYMid meet">
  <path d="M127.35 13.99C71.48 25.98 25.56 72.15 13.83 128.53 10.77 143.84 10 198.94 10 501.25c0 345.16.26 355.37 5.1 374.5 7.14 28.06 18.62 48.47 39.54 69.39 20.66 20.92 45.66 34.7 73.98 40.56 26.79 5.61 715.58 5.61 742.37 0 56.89-11.99 102.81-57.91 114.8-114.8 5.61-26.79 5.61-715.58 0-742.37-5.87-28.32-19.64-53.32-40.56-73.98-20.92-20.92-41.33-32.4-69.39-39.54-19.13-4.85-29.08-5.1-375.77-4.85-295.17 0-358.94.77-372.72 3.83z" fill="rgba(118, 73, 188, 0.6)" stroke="none"/>
</svg>
</g></svg></g></g>
<!-- /image 01131 -->

<!-- image 40635 -->
<g id="transformed-40635" data-image="40635" transform="translate(50, 50) rotate(0, 25, 25)"><g><svg version="1.1" width="50px" height="50px" viewBox="0 0 50 50"><g id="original-40635"><svg xmlns="http://www.w3.org/2000/svg" viewBox="0 0 1000 1000" xmlns:xlink="http://www.w3.org/1999/xlink" version="1.1" preserveAspectRatio="xMidYMid meet">
  <path d="M127.35 13.99C71.48 25.98 25.56 72.15 13.83 128.53 10.77 143.84 10 198.94 10 501.25c0 345.16.26 355.37 5.1 374.5 7.14 28.06 18.62 48.47 39.54 69.39 20.66 20.92 45.66 34.7 73.98 40.56 26.79 5.61 715.58 5.61 742.37 0 56.89-11.99 102.81-57.91 114.8-114.8 5.61-26.79 5.61-715.58 0-742.37-5.87-28.32-19.64-53.32-40.56-73.98-20.92-20.92-41.33-32.4-69.39-39.54-19.13-4.85-29.08-5.1-375.77-4.85-295.17 0-358.94.77-372.72 3.83z" fill="rgba(118, 73, 188, 0.8)" stroke="none"/>
</svg>
</g></svg></g></g>
<!-- /image 40635 -->

<!-- image 64079 -->
<g id="transformed-64079" data-image="64079" transform="translate(200, 100) rotate(0, 25, 25)"><g><svg version="1.1" width="50px" height="50px" viewBox="0 0 50 50"><g id="original-64079"><svg xmlns="http://www.w3.org/2000/svg" viewBox="0 0 1000 1000" xmlns:xlink="http://www.w3.org/1999/xlink" version="1.1" preserveAspectRatio="xMidYMid meet">
  <path d="M127.35 13.99C71.48 25.98 25.56 72.15 13.83 128.53 10.77 143.84 10 198.94 10 501.25c0 345.16.26 355.37 5.1 374.5 7.14 28.06 18.62 48.47 39.54 69.39 20.66 20.92 45.66 34.7 73.98 40.56 26.79 5.61 715.58 5.61 742.37 0 56.89-11.99 102.81-57.91 114.8-114.8 5.61-26.79 5.61-715.58 0-742.37-5.87-28.32-19.64-53.32-40.56-73.98-20.92-20.92-41.33-32.4-69.39-39.54-19.13-4.85-29.08-5.1-375.77-4.85-295.17 0-358.94.77-372.72 3.83z" fill="rgba(242, 2, 160, 0.6)" stroke="none"/>
</svg>
</g></svg></g></g>
<!-- /image 64079 -->

<!-- image 82079 -->
<g id="transformed-82079" data-image="82079" transform="translate(50, 100) rotate(0, 25, 25)"><g><svg version="1.1" width="50px" height="50px" viewBox="0 0 50 50"><g id="original-82079"><svg xmlns="http://www.w3.org/2000/svg" viewBox="0 0 1000 1000" xmlns:xlink="http://www.w3.org/1999/xlink" version="1.1" preserveAspectRatio="xMidYMid meet">
  <path d="M127.35 13.99C71.48 25.98 25.56 72.15 13.83 128.53 10.77 143.84 10 198.94 10 501.25c0 345.16.26 355.37 5.1 374.5 7.14 28.06 18.62 48.47 39.54 69.39 20.66 20.92 45.66 34.7 73.98 40.56 26.79 5.61 715.58 5.61 742.37 0 56.89-11.99 102.81-57.91 114.8-114.8 5.61-26.79 5.61-715.58 0-742.37-5.87-28.32-19.64-53.32-40.56-73.98-20.92-20.92-41.33-32.4-69.39-39.54-19.13-4.85-29.08-5.1-375.77-4.85-295.17 0-358.94.77-372.72 3.83z" fill="rgba(242, 2, 160, 0.7)" stroke="none"/>
</svg>
</g></svg></g></g>
<!-- /image 82079 -->

<!-- image 93950 -->
<g id="transformed-93950" data-image="93950" transform="translate(150, 200) rotate(0, 25, 25)"><g><svg version="1.1" width="50px" height="50px" viewBox="0 0 50 50"><g id="original-93950"><svg xmlns="http://www.w3.org/2000/svg" viewBox="0 0 1000 1000" xmlns:xlink="http://www.w3.org/1999/xlink" version="1.1" preserveAspectRatio="xMidYMid meet">
  <path d="M127.35 13.99C71.48 25.98 25.56 72.15 13.83 128.53 10.77 143.84 10 198.94 10 501.25c0 345.16.26 355.37 5.1 374.5 7.14 28.06 18.62 48.47 39.54 69.39 20.66 20.92 45.66 34.7 73.98 40.56 26.79 5.61 715.58 5.61 742.37 0 56.89-11.99 102.81-57.91 114.8-114.8 5.61-26.79 5.61-715.58 0-742.37-5.87-28.32-19.64-53.32-40.56-73.98-20.92-20.92-41.33-32.4-69.39-39.54-19.13-4.85-29.08-5.1-375.77-4.85-295.17 0-358.94.77-372.72 3.83z" fill="rgba(118, 73, 188, 0.8)" stroke="none"/>
</svg>
</g></svg></g></g>
<!-- /image 93950 -->

<!-- image 13946 -->
<g id="transformed-13946" data-image="13946" transform="translate(150, 150) rotate(0, 25, 25)"><g><svg version="1.1" width="50px" height="50px" viewBox="0 0 50 50"><g id="original-13946"><svg xmlns="http://www.w3.org/2000/svg" viewBox="0 0 1000 1000" xmlns:xlink="http://www.w3.org/1999/xlink" version="1.1" preserveAspectRatio="xMidYMid meet">
  <path d="M127.35 13.99C71.48 25.98 25.56 72.15 13.83 128.53 10.77 143.84 10 198.94 10 501.25c0 345.16.26 355.37 5.1 374.5 7.14 28.06 18.62 48.47 39.54 69.39 20.66 20.92 45.66 34.7 73.98 40.56 26.79 5.61 715.58 5.61 742.37 0 56.89-11.99 102.81-57.91 114.8-114.8 5.61-26.79 5.61-715.58 0-742.37-5.87-28.32-19.64-53.32-40.56-73.98-20.92-20.92-41.33-32.4-69.39-39.54-19.13-4.85-29.08-5.1-375.77-4.85-295.17 0-358.94.77-372.72 3.83z" fill="rgba(118, 73, 188, 0.6)" stroke="none"/>
</svg>
</g></svg></g></g>
<!-- /image 13946 -->

<!-- image 81084 -->
<g id="transformed-81084" data-image="81084" transform="translate(200, 200) rotate(0, 25, 25)"><g><svg version="1.1" width="50px" height="50px" viewBox="0 0 50 50"><g id="original-81084"><svg xmlns="http://www.w3.org/2000/svg" viewBox="0 0 1000 1000" xmlns:xlink="http://www.w3.org/1999/xlink" version="1.1" preserveAspectRatio="xMidYMid meet">
  <path d="M127.35 13.99C71.48 25.98 25.56 72.15 13.83 128.53 10.77 143.84 10 198.94 10 501.25c0 345.16.26 355.37 5.1 374.5 7.14 28.06 18.62 48.47 39.54 69.39 20.66 20.92 45.66 34.7 73.98 40.56 26.79 5.61 715.58 5.61 742.37 0 56.89-11.99 102.81-57.91 114.8-114.8 5.61-26.79 5.61-715.58 0-742.37-5.87-28.32-19.64-53.32-40.56-73.98-20.92-20.92-41.33-32.4-69.39-39.54-19.13-4.85-29.08-5.1-375.77-4.85-295.17 0-358.94.77-372.72 3.83z" fill="rgba(118, 73, 188, 1)" stroke="none"/>
</svg>
</g></svg></g></g>
<!-- /image 81084 -->

<!-- image 00793 -->
<g id="transformed-00793" data-image="00793" transform="translate(150, 0) rotate(0, 25, 25)"><g><svg version="1.1" width="50px" height="50px" viewBox="0 0 50 50"><g id="original-00793"><svg xmlns="http://www.w3.org/2000/svg" viewBox="0 0 1000 1000" xmlns:xlink="http://www.w3.org/1999/xlink" version="1.1" preserveAspectRatio="xMidYMid meet">
  <path d="M127.35 13.99C71.48 25.98 25.56 72.15 13.83 128.53 10.77 143.84 10 198.94 10 501.25c0 345.16.26 355.37 5.1 374.5 7.14 28.06 18.62 48.47 39.54 69.39 20.66 20.92 45.66 34.7 73.98 40.56 26.79 5.61 715.58 5.61 742.37 0 56.89-11.99 102.81-57.91 114.8-114.8 5.61-26.79 5.61-715.58 0-742.37-5.87-28.32-19.64-53.32-40.56-73.98-20.92-20.92-41.33-32.4-69.39-39.54-19.13-4.85-29.08-5.1-375.77-4.85-295.17 0-358.94.77-372.72 3.83z" fill="rgba(242, 2, 160, 0.4)" stroke="none"/>
</svg>
</g></svg></g></g>
<!-- /image 00793 -->

<!-- image 04841 -->
<g id="transformed-04841" data-image="04841" transform="translate(200, 0) rotate(0, 25, 25)"><g><svg version="1.1" width="50px" height="50px" viewBox="0 0 50 50"><g id="original-04841"><svg xmlns="http://www.w3.org/2000/svg" viewBox="0 0 1000 1000" xmlns:xlink="http://www.w3.org/1999/xlink" version="1.1" preserveAspectRatio="xMidYMid meet">
  <path d="M127.35 13.99C71.48 25.98 25.56 72.15 13.83 128.53 10.77 143.84 10 198.94 10 501.25c0 345.16.26 355.37 5.1 374.5 7.14 28.06 18.62 48.47 39.54 69.39 20.66 20.92 45.66 34.7 73.98 40.56 26.79 5.61 715.58 5.61 742.37 0 56.89-11.99 102.81-57.91 114.8-114.8 5.61-26.79 5.61-715.58 0-742.37-5.87-28.32-19.64-53.32-40.56-73.98-20.92-20.92-41.33-32.4-69.39-39.54-19.13-4.85-29.08-5.1-375.77-4.85-295.17 0-358.94.77-372.72 3.83z" fill="rgba(242, 2, 160, 0.2)" stroke="none"/>
</svg>
</g></svg></g></g>
<!-- /image 04841 -->

<!-- image 28942 -->
<g id="transformed-28942" data-image="28942" transform="translate(100, 0) rotate(0, 25, 25)"><g><svg version="1.1" width="50px" height="50px" viewBox="0 0 50 50"><g id="original-28942"><svg xmlns="http://www.w3.org/2000/svg" viewBox="0 0 1000 1000" xmlns:xlink="http://www.w3.org/1999/xlink" version="1.1" preserveAspectRatio="xMidYMid meet">
  <path d="M127.35 13.99C71.48 25.98 25.56 72.15 13.83 128.53 10.77 143.84 10 198.94 10 501.25c0 345.16.26 355.37 5.1 374.5 7.14 28.06 18.62 48.47 39.54 69.39 20.66 20.92 45.66 34.7 73.98 40.56 26.79 5.61 715.58 5.61 742.37 0 56.89-11.99 102.81-57.91 114.8-114.8 5.61-26.79 5.61-715.58 0-742.37-5.87-28.32-19.64-53.32-40.56-73.98-20.92-20.92-41.33-32.4-69.39-39.54-19.13-4.85-29.08-5.1-375.77-4.85-295.17 0-358.94.77-372.72 3.83z" fill="rgba(242, 2, 160, 0.6)" stroke="none"/>
</svg>
</g></svg></g></g>
<!-- /image 28942 -->

<!-- image 04213 -->
<g id="transformed-04213" data-image="04213" transform="translate(50, 0) rotate(0, 25, 25)"><g><svg version="1.1" width="50px" height="50px" viewBox="0 0 50 50"><g id="original-04213"><svg xmlns="http://www.w3.org/2000/svg" viewBox="0 0 1000 1000" xmlns:xlink="http://www.w3.org/1999/xlink" version="1.1" preserveAspectRatio="xMidYMid meet">
  <path d="M127.35 13.99C71.48 25.98 25.56 72.15 13.83 128.53 10.77 143.84 10 198.94 10 501.25c0 345.16.26 355.37 5.1 374.5 7.14 28.06 18.62 48.47 39.54 69.39 20.66 20.92 45.66 34.7 73.98 40.56 26.79 5.61 715.58 5.61 742.37 0 56.89-11.99 102.81-57.91 114.8-114.8 5.61-26.79 5.61-715.58 0-742.37-5.87-28.32-19.64-53.32-40.56-73.98-20.92-20.92-41.33-32.4-69.39-39.54-19.13-4.85-29.08-5.1-375.77-4.85-295.17 0-358.94.77-372.72 3.83z" fill="rgba(242, 2, 160, 0.7)" stroke="none"/>
</svg>
</g></svg></g></g>
<!-- /image 04213 -->

<!-- image 62817 -->
<g id="transformed-62817" data-image="62817" transform="translate(0, 150) rotate(0, 25, 25)"><g><svg version="1.1" width="50px" height="50px" viewBox="0 0 50 50"><g id="original-62817"><svg xmlns="http://www.w3.org/2000/svg" viewBox="0 0 1000 1000" xmlns:xlink="http://www.w3.org/1999/xlink" version="1.1" preserveAspectRatio="xMidYMid meet">
  <path d="M127.35 13.99C71.48 25.98 25.56 72.15 13.83 128.53 10.77 143.84 10 198.94 10 501.25c0 345.16.26 355.37 5.1 374.5 7.14 28.06 18.62 48.47 39.54 69.39 20.66 20.92 45.66 34.7 73.98 40.56 26.79 5.61 715.58 5.61 742.37 0 56.89-11.99 102.81-57.91 114.8-114.8 5.61-26.79 5.61-715.58 0-742.37-5.87-28.32-19.64-53.32-40.56-73.98-20.92-20.92-41.33-32.4-69.39-39.54-19.13-4.85-29.08-5.1-375.77-4.85-295.17 0-358.94.77-372.72 3.83z" fill="rgba(118, 73, 188, 0.4)" stroke="none"/>
</svg>
</g></svg></g></g>
<!-- /image 62817 -->

<!-- image 76437 -->
<g id="transformed-76437" data-image="76437" transform="translate(0, 100) rotate(0, 25, 25)"><g><svg version="1.1" width="50px" height="50px" viewBox="0 0 50 50"><g id="original-76437"><svg xmlns="http://www.w3.org/2000/svg" viewBox="0 0 1000 1000" xmlns:xlink="http://www.w3.org/1999/xlink" version="1.1" preserveAspectRatio="xMidYMid meet">
  <path d="M127.35 13.99C71.48 25.98 25.56 72.15 13.83 128.53 10.77 143.84 10 198.94 10 501.25c0 345.16.26 355.37 5.1 374.5 7.14 28.06 18.62 48.47 39.54 69.39 20.66 20.92 45.66 34.7 73.98 40.56 26.79 5.61 715.58 5.61 742.37 0 56.89-11.99 102.81-57.91 114.8-114.8 5.61-26.79 5.61-715.58 0-742.37-5.87-28.32-19.64-53.32-40.56-73.98-20.92-20.92-41.33-32.4-69.39-39.54-19.13-4.85-29.08-5.1-375.77-4.85-295.17 0-358.94.77-372.72 3.83z" fill="rgba(242, 2, 160, 0.6)" stroke="none"/>
</svg>
</g></svg></g></g>
<!-- /image 76437 -->

<!-- image 41038 -->
<g id="transformed-41038" data-image="41038" transform="translate(200, 150) rotate(0, 25, 25)"><g><svg version="1.1" width="50px" height="50px" viewBox="0 0 50 50"><g id="original-41038"><svg xmlns="http://www.w3.org/2000/svg" viewBox="0 0 1000 1000" xmlns:xlink="http://www.w3.org/1999/xlink" version="1.1" preserveAspectRatio="xMidYMid meet">
  <path d="M127.35 13.99C71.48 25.98 25.56 72.15 13.83 128.53 10.77 143.84 10 198.94 10 501.25c0 345.16.26 355.37 5.1 374.5 7.14 28.06 18.62 48.47 39.54 69.39 20.66 20.92 45.66 34.7 73.98 40.56 26.79 5.61 715.58 5.61 742.37 0 56.89-11.99 102.81-57.91 114.8-114.8 5.61-26.79 5.61-715.58 0-742.37-5.87-28.32-19.64-53.32-40.56-73.98-20.92-20.92-41.33-32.4-69.39-39.54-19.13-4.85-29.08-5.1-375.77-4.85-295.17 0-358.94.77-372.72 3.83z" fill="rgba(118, 73, 188, 0.8)" stroke="none"/>
</svg>
</g></svg></g></g>
<!-- /image 41038 -->

<!-- image 85907 -->
<g id="transformed-85907" data-image="85907" transform="translate(50, 150) rotate(0, 25, 25)"><g><svg version="1.1" width="50px" height="50px" viewBox="0 0 50 50"><g id="original-85907"><svg xmlns="http://www.w3.org/2000/svg" viewBox="0 0 1000 1000" xmlns:xlink="http://www.w3.org/1999/xlink" version="1.1" preserveAspectRatio="xMidYMid meet">
  <path d="M127.35 13.99C71.48 25.98 25.56 72.15 13.83 128.53 10.77 143.84 10 198.94 10 501.25c0 345.16.26 355.37 5.1 374.5 7.14 28.06 18.62 48.47 39.54 69.39 20.66 20.92 45.66 34.7 73.98 40.56 26.79 5.61 715.58 5.61 742.37 0 56.89-11.99 102.81-57.91 114.8-114.8 5.61-26.79 5.61-715.58 0-742.37-5.87-28.32-19.64-53.32-40.56-73.98-20.92-20.92-41.33-32.4-69.39-39.54-19.13-4.85-29.08-5.1-375.77-4.85-295.17 0-358.94.77-372.72 3.83z" fill="rgba(118, 73, 188, 0.2)" stroke="none"/>
</svg>
</g></svg></g></g>
<!-- /image 85907 -->

<!-- image 57266 -->
<g id="transformed-57266" data-image="57266" transform="translate(100, 100) rotate(0, 25, 25)"><g><svg version="1.1" width="50px" height="50px" viewBox="0 0 50 50"><g id="original-57266"><svg xmlns="http://www.w3.org/2000/svg" viewBox="0 0 1000 1000" xmlns:xlink="http://www.w3.org/1999/xlink" version="1.1" preserveAspectRatio="xMidYMid meet">
  <path d="M127.35 13.99C71.48 25.98 25.56 72.15 13.83 128.53 10.77 143.84 10 198.94 10 501.25c0 345.16.26 355.37 5.1 374.5 7.14 28.06 18.62 48.47 39.54 69.39 20.66 20.92 45.66 34.7 73.98 40.56 26.79 5.61 715.58 5.61 742.37 0 56.89-11.99 102.81-57.91 114.8-114.8 5.61-26.79 5.61-715.58 0-742.37-5.87-28.32-19.64-53.32-40.56-73.98-20.92-20.92-41.33-32.4-69.39-39.54-19.13-4.85-29.08-5.1-375.77-4.85-295.17 0-358.94.77-372.72 3.83z" fill="rgba(242, 2, 160, 0.6)" stroke="none"/>
</svg>
</g></svg></g></g>
<!-- /image 57266 -->

<!-- image 54233 -->
<g id="transformed-54233" data-image="54233" transform="translate(100, 150) rotate(0, 25, 25)"><g><svg version="1.1" width="50px" height="50px" viewBox="0 0 50 50"><g id="original-54233"><svg xmlns="http://www.w3.org/2000/svg" viewBox="0 0 1000 1000" xmlns:xlink="http://www.w3.org/1999/xlink" version="1.1" preserveAspectRatio="xMidYMid meet">
  <path d="M127.35 13.99C71.48 25.98 25.56 72.15 13.83 128.53 10.77 143.84 10 198.94 10 501.25c0 345.16.26 355.37 5.1 374.5 7.14 28.06 18.62 48.47 39.54 69.39 20.66 20.92 45.66 34.7 73.98 40.56 26.79 5.61 715.58 5.61 742.37 0 56.89-11.99 102.81-57.91 114.8-114.8 5.61-26.79 5.61-715.58 0-742.37-5.87-28.32-19.64-53.32-40.56-73.98-20.92-20.92-41.33-32.4-69.39-39.54-19.13-4.85-29.08-5.1-375.77-4.85-295.17 0-358.94.77-372.72 3.83z" fill="rgba(118, 73, 188, 0.6)" stroke="none"/>
</svg>
</g></svg></g></g>
<!-- /image 54233 -->

<!-- image 77101 -->
<g id="transformed-77101" data-image="77101" transform="translate(150, 100) rotate(0, 25, 25)"><g><svg version="1.1" width="50px" height="50px" viewBox="0 0 50 50"><g id="original-77101"><svg xmlns="http://www.w3.org/2000/svg" viewBox="0 0 1000 1000" xmlns:xlink="http://www.w3.org/1999/xlink" version="1.1" preserveAspectRatio="xMidYMid meet">
  <path d="M127.35 13.99C71.48 25.98 25.56 72.15 13.83 128.53 10.77 143.84 10 198.94 10 501.25c0 345.16.26 355.37 5.1 374.5 7.14 28.06 18.62 48.47 39.54 69.39 20.66 20.92 45.66 34.7 73.98 40.56 26.79 5.61 715.58 5.61 742.37 0 56.89-11.99 102.81-57.91 114.8-114.8 5.61-26.79 5.61-715.58 0-742.37-5.87-28.32-19.64-53.32-40.56-73.98-20.92-20.92-41.33-32.4-69.39-39.54-19.13-4.85-29.08-5.1-375.77-4.85-295.17 0-358.94.77-372.72 3.83z" fill="rgba(242, 2, 160, 0.2)" stroke="none"/>
</svg>
</g></svg></g></g>
<!-- /image 77101 -->

<!-- image 25727 -->
<g id="transformed-25727" data-image="25727" transform="translate(50, 200) rotate(0, 25, 25)"><g><svg version="1.1" width="50px" height="50px" viewBox="0 0 50 50"><g id="original-25727"><svg xmlns="http://www.w3.org/2000/svg" viewBox="0 0 1000 1000" xmlns:xlink="http://www.w3.org/1999/xlink" version="1.1" preserveAspectRatio="xMidYMid meet">
  <path d="M127.35 13.99C71.48 25.98 25.56 72.15 13.83 128.53 10.77 143.84 10 198.94 10 501.25c0 345.16.26 355.37 5.1 374.5 7.14 28.06 18.62 48.47 39.54 69.39 20.66 20.92 45.66 34.7 73.98 40.56 26.79 5.61 715.58 5.61 742.37 0 56.89-11.99 102.81-57.91 114.8-114.8 5.61-26.79 5.61-715.58 0-742.37-5.87-28.32-19.64-53.32-40.56-73.98-20.92-20.92-41.33-32.4-69.39-39.54-19.13-4.85-29.08-5.1-375.77-4.85-295.17 0-358.94.77-372.72 3.83z" fill="rgba(118, 73, 188, 0.4)" stroke="none"/>
</svg>
</g></svg></g></g>
<!-- /image 25727 -->

<!-- image 38590 -->
<g id="transformed-38590" data-image="38590" transform="translate(100, 200) rotate(0, 25, 25)"><g><svg version="1.1" width="50px" height="50px" viewBox="0 0 50 50"><g id="original-38590"><svg xmlns="http://www.w3.org/2000/svg" viewBox="0 0 1000 1000" xmlns:xlink="http://www.w3.org/1999/xlink" version="1.1" preserveAspectRatio="xMidYMid meet">
  <path d="M127.35 13.99C71.48 25.98 25.56 72.15 13.83 128.53 10.77 143.84 10 198.94 10 501.25c0 345.16.26 355.37 5.1 374.5 7.14 28.06 18.62 48.47 39.54 69.39 20.66 20.92 45.66 34.7 73.98 40.56 26.79 5.61 715.58 5.61 742.37 0 56.89-11.99 102.81-57.91 114.8-114.8 5.61-26.79 5.61-715.58 0-742.37-5.87-28.32-19.64-53.32-40.56-73.98-20.92-20.92-41.33-32.4-69.39-39.54-19.13-4.85-29.08-5.1-375.77-4.85-295.17 0-358.94.77-372.72 3.83z" fill="rgba(0, 0, 0, 1)" stroke="none"/>
</svg>
</g></svg></g></g>
<!-- /image 38590 -->

<!-- image 09654 -->
<g id="transformed-09654" data-image="09654" transform="translate(100, 200) rotate(0, 25, 25)"><g><svg version="1.1" width="50px" height="50px" viewBox="0 0 50 50"><g id="original-09654"><svg xmlns="http://www.w3.org/2000/svg" viewBox="0 0 1000 1000" xmlns:xlink="http://www.w3.org/1999/xlink" version="1.1" preserveAspectRatio="xMidYMid meet">
  <path d="M127.35 13.99C71.48 25.98 25.56 72.15 13.83 128.53 10.77 143.84 10 198.94 10 501.25c0 345.16.26 355.37 5.1 374.5 7.14 28.06 18.62 48.47 39.54 69.39 20.66 20.92 45.66 34.7 73.98 40.56 26.79 5.61 715.58 5.61 742.37 0 56.89-11.99 102.81-57.91 114.8-114.8 5.61-26.79 5.61-715.58 0-742.37-5.87-28.32-19.64-53.32-40.56-73.98-20.92-20.92-41.33-32.4-69.39-39.54-19.13-4.85-29.08-5.1-375.77-4.85-295.17 0-358.94.77-372.72 3.83z" fill="rgba(118, 73, 188, 0.6)" stroke="none"/>
</svg>
</g></svg></g></g>
<!-- /image 09654 -->

<!-- image 01642 -->
<g id="transformed-01642" data-image="01642" transform="translate(0, 200) rotate(0, 25, 25)"><g><svg version="1.1" width="50px" height="50px" viewBox="0 0 50 50"><g id="original-01642"><svg xmlns="http://www.w3.org/2000/svg" viewBox="0 0 1000 1000" xmlns:xlink="http://www.w3.org/1999/xlink" version="1.1" preserveAspectRatio="xMidYMid meet">
  <path d="M127.35 13.99C71.48 25.98 25.56 72.15 13.83 128.53 10.77 143.84 10 198.94 10 501.25c0 345.16.26 355.37 5.1 374.5 7.14 28.06 18.62 48.47 39.54 69.39 20.66 20.92 45.66 34.7 73.98 40.56 26.79 5.61 715.58 5.61 742.37 0 56.89-11.99 102.81-57.91 114.8-114.8 5.61-26.79 5.61-715.58 0-742.37-5.87-28.32-19.64-53.32-40.56-73.98-20.92-20.92-41.33-32.4-69.39-39.54-19.13-4.85-29.08-5.1-375.77-4.85-295.17 0-358.94.77-372.72 3.83z" fill="rgba(118, 73, 188, 0.2)" stroke="none"/>
</svg>
</g></svg></g></g>
<!-- /image 01642 -->

<!-- image 86226 -->
<g id="transformed-86226" data-image="86226" transform="translate(0, 50) rotate(0, 25, 25)"><g><svg version="1.1" width="50px" height="50px" viewBox="0 0 50 50"><g id="original-86226"><svg xmlns="http://www.w3.org/2000/svg" viewBox="0 0 1000 1000" xmlns:xlink="http://www.w3.org/1999/xlink" version="1.1" preserveAspectRatio="xMidYMid meet">
  <path d="M127.35 13.99C71.48 25.98 25.56 72.15 13.83 128.53 10.77 143.84 10 198.94 10 501.25c0 345.16.26 355.37 5.1 374.5 7.14 28.06 18.62 48.47 39.54 69.39 20.66 20.92 45.66 34.7 73.98 40.56 26.79 5.61 715.58 5.61 742.37 0 56.89-11.99 102.81-57.91 114.8-114.8 5.61-26.79 5.61-715.58 0-742.37-5.87-28.32-19.64-53.32-40.56-73.98-20.92-20.92-41.33-32.4-69.39-39.54-19.13-4.85-29.08-5.1-375.77-4.85-295.17 0-358.94.77-372.72 3.83z" fill="rgba(118, 73, 188, 0.8)" stroke="none"/>
</svg>
</g></svg></g></g>
<!-- /image 86226 -->

<!-- image 82527 -->
<g id="transformed-82527" data-image="82527" transform="translate(0, 0) rotate(0, 25, 25)"><g><svg version="1.1" width="50px" height="50px" viewBox="0 0 50 50"><g id="original-82527"><svg xmlns="http://www.w3.org/2000/svg" viewBox="0 0 1000 1000" xmlns:xlink="http://www.w3.org/1999/xlink" version="1.1" preserveAspectRatio="xMidYMid meet">
  <path d="M127.35 13.99C71.48 25.98 25.56 72.15 13.83 128.53 10.77 143.84 10 198.94 10 501.25c0 345.16.26 355.37 5.1 374.5 7.14 28.06 18.62 48.47 39.54 69.39 20.66 20.92 45.66 34.7 73.98 40.56 26.79 5.61 715.58 5.61 742.37 0 56.89-11.99 102.81-57.91 114.8-114.8 5.61-26.79 5.61-715.58 0-742.37-5.87-28.32-19.64-53.32-40.56-73.98-20.92-20.92-41.33-32.4-69.39-39.54-19.13-4.85-29.08-5.1-375.77-4.85-295.17 0-358.94.77-372.72 3.83z" fill="rgba(242, 2, 160, 0.8)" stroke="none"/>
</svg>
</g></svg></g></g>
<!-- /image 82527 -->
</defs><rect x="0" y="0" width="250" height="250" fill="rgba(0, 0, 0, 1)"></rect><use xlink:href="#transformed-22854" transform="translate(-250, -250)"></use><use xlink:href="#transformed-22854" transform="translate(0, -250)"></use><use xlink:href="#transformed-22854" transform="translate(250, -250)"></use><use xlink:href="#transformed-22854" transform="translate(-250, 0)"></use><use xlink:href="#transformed-22854" transform="translate(0, 0)"></use><use xlink:href="#transformed-22854" transform="translate(250, 0)"></use><use xlink:href="#transformed-22854" transform="translate(-250, 250)"></use><use xlink:href="#transformed-22854" transform="translate(0, 250)"></use><use xlink:href="#transformed-22854" transform="translate(250, 250)"></use><use xlink:href="#transformed-64598" transform="translate(-250, -250)"></use><use xlink:href="#transformed-64598" transform="translate(0, -250)"></use><use xlink:href="#transformed-64598" transform="translate(250, -250)"></use><use xlink:href="#transformed-64598" transform="translate(-250, 0)"></use><use xlink:href="#transformed-64598" transform="translate(0, 0)"></use><use xlink:href="#transformed-64598" transform="translate(250, 0)"></use><use xlink:href="#transformed-64598" transform="translate(-250, 250)"></use><use xlink:href="#transformed-64598" transform="translate(0, 250)"></use><use xlink:href="#transformed-64598" transform="translate(250, 250)"></use><use xlink:href="#transformed-01131" transform="translate(-250, -250)"></use><use xlink:href="#transformed-01131" transform="translate(0, -250)"></use><use xlink:href="#transformed-01131" transform="translate(250, -250)"></use><use xlink:href="#transformed-01131" transform="translate(-250, 0)"></use><use xlink:href="#transformed-01131" transform="translate(0, 0)"></use><use xlink:href="#transformed-01131" transform="translate(250, 0)"></use><use xlink:href="#transformed-01131" transform="translate(-250, 250)"></use><use xlink:href="#transformed-01131" transform="translate(0, 250)"></use><use xlink:href="#transformed-01131" transform="translate(250, 250)"></use><use xlink:href="#transformed-40635" transform="translate(-250, -250)"></use><use xlink:href="#transformed-40635" transform="translate(0, -250)"></use><use xlink:href="#transformed-40635" transform="translate(250, -250)"></use><use xlink:href="#transformed-40635" transform="translate(-250, 0)"></use><use xlink:href="#transformed-40635" transform="translate(0, 0)"></use><use xlink:href="#transformed-40635" transform="translate(250, 0)"></use><use xlink:href="#transformed-40635" transform="translate(-250, 250)"></use><use xlink:href="#transformed-40635" transform="translate(0, 250)"></use><use xlink:href="#transformed-40635" transform="translate(250, 250)"></use><use xlink:href="#transformed-64079" transform="translate(-250, -250)"></use><use xlink:href="#transformed-64079" transform="translate(0, -250)"></use><use xlink:href="#transformed-64079" transform="translate(250, -250)"></use><use xlink:href="#transformed-64079" transform="translate(-250, 0)"></use><use xlink:href="#transformed-64079" transform="translate(0, 0)"></use><use xlink:href="#transformed-64079" transform="translate(250, 0)"></use><use xlink:href="#transformed-64079" transform="translate(-250, 250)"></use><use xlink:href="#transformed-64079" transform="translate(0, 250)"></use><use xlink:href="#transformed-64079" transform="translate(250, 250)"></use><use xlink:href="#transformed-82079" transform="translate(-250, -250)"></use><use xlink:href="#transformed-82079" transform="translate(0, -250)"></use><use xlink:href="#transformed-82079" transform="translate(250, -250)"></use><use xlink:href="#transformed-82079" transform="translate(-250, 0)"></use><use xlink:href="#transformed-82079" transform="translate(0, 0)"></use><use xlink:href="#transformed-82079" transform="translate(250, 0)"></use><use xlink:href="#transformed-82079" transform="translate(-250, 250)"></use><use xlink:href="#transformed-82079" transform="translate(0, 250)"></use><use xlink:href="#transformed-82079" transform="translate(250, 250)"></use><use xlink:href="#transformed-93950" transform="translate(-250, -250)"></use><use xlink:href="#transformed-93950" transform="translate(0, -250)"></use><use xlink:href="#transformed-93950" transform="translate(250, -250)"></use><use xlink:href="#transformed-93950" transform="translate(-250, 0)"></use><use xlink:href="#transformed-93950" transform="translate(0, 0)"></use><use xlink:href="#transformed-93950" transform="translate(250, 0)"></use><use xlink:href="#transformed-93950" transform="translate(-250, 250)"></use><use xlink:href="#transformed-93950" transform="translate(0, 250)"></use><use xlink:href="#transformed-93950" transform="translate(250, 250)"></use><use xlink:href="#transformed-13946" transform="translate(-250, -250)"></use><use xlink:href="#transformed-13946" transform="translate(0, -250)"></use><use xlink:href="#transformed-13946" transform="translate(250, -250)"></use><use xlink:href="#transformed-13946" transform="translate(-250, 0)"></use><use xlink:href="#transformed-13946" transform="translate(0, 0)"></use><use xlink:href="#transformed-13946" transform="translate(250, 0)"></use><use xlink:href="#transformed-13946" transform="translate(-250, 250)"></use><use xlink:href="#transformed-13946" transform="translate(0, 250)"></use><use xlink:href="#transformed-13946" transform="translate(250, 250)"></use><use xlink:href="#transformed-81084" transform="translate(-250, -250)"></use><use xlink:href="#transformed-81084" transform="translate(0, -250)"></use><use xlink:href="#transformed-81084" transform="translate(250, -250)"></use><use xlink:href="#transformed-81084" transform="translate(-250, 0)"></use><use xlink:href="#transformed-81084" transform="translate(0, 0)"></use><use xlink:href="#transformed-81084" transform="translate(250, 0)"></use><use xlink:href="#transformed-81084" transform="translate(-250, 250)"></use><use xlink:href="#transformed-81084" transform="translate(0, 250)"></use><use xlink:href="#transformed-81084" transform="translate(250, 250)"></use><use xlink:href="#transformed-00793" transform="translate(-250, -250)"></use><use xlink:href="#transformed-00793" transform="translate(0, -250)"></use><use xlink:href="#transformed-00793" transform="translate(250, -250)"></use><use xlink:href="#transformed-00793" transform="translate(-250, 0)"></use><use xlink:href="#transformed-00793" transform="translate(0, 0)"></use><use xlink:href="#transformed-00793" transform="translate(250, 0)"></use><use xlink:href="#transformed-00793" transform="translate(-250, 250)"></use><use xlink:href="#transformed-00793" transform="translate(0, 250)"></use><use xlink:href="#transformed-00793" transform="translate(250, 250)"></use><use xlink:href="#transformed-04841" transform="translate(-250, -250)"></use><use xlink:href="#transformed-04841" transform="translate(0, -250)"></use><use xlink:href="#transformed-04841" transform="translate(250, -250)"></use><use xlink:href="#transformed-04841" transform="translate(-250, 0)"></use><use xlink:href="#transformed-04841" transform="translate(0, 0)"></use><use xlink:href="#transformed-04841" transform="translate(250, 0)"></use><use xlink:href="#transformed-04841" transform="translate(-250, 250)"></use><use xlink:href="#transformed-04841" transform="translate(0, 250)"></use><use xlink:href="#transformed-04841" transform="translate(250, 250)"></use><use xlink:href="#transformed-28942" transform="translate(-250, -250)"></use><use xlink:href="#transformed-28942" transform="translate(0, -250)"></use><use xlink:href="#transformed-28942" transform="translate(250, -250)"></use><use xlink:href="#transformed-28942" transform="translate(-250, 0)"></use><use xlink:href="#transformed-28942" transform="translate(0, 0)"></use><use xlink:href="#transformed-28942" transform="translate(250, 0)"></use><use xlink:href="#transformed-28942" transform="translate(-250, 250)"></use><use xlink:href="#transformed-28942" transform="translate(0, 250)"></use><use xlink:href="#transformed-28942" transform="translate(250, 250)"></use><use xlink:href="#transformed-04213" transform="translate(-250, -250)"></use><use xlink:href="#transformed-04213" transform="translate(0, -250)"></use><use xlink:href="#transformed-04213" transform="translate(250, -250)"></use><use xlink:href="#transformed-04213" transform="translate(-250, 0)"></use><use xlink:href="#transformed-04213" transform="translate(0, 0)"></use><use xlink:href="#transformed-04213" transform="translate(250, 0)"></use><use xlink:href="#transformed-04213" transform="translate(-250, 250)"></use><use xlink:href="#transformed-04213" transform="translate(0, 250)"></use><use xlink:href="#transformed-04213" transform="translate(250, 250)"></use><use xlink:href="#transformed-62817" transform="translate(-250, -250)"></use><use xlink:href="#transformed-62817" transform="translate(0, -250)"></use><use xlink:href="#transformed-62817" transform="translate(250, -250)"></use><use xlink:href="#transformed-62817" transform="translate(-250, 0)"></use><use xlink:href="#transformed-62817" transform="translate(0, 0)"></use><use xlink:href="#transformed-62817" transform="translate(250, 0)"></use><use xlink:href="#transformed-62817" transform="translate(-250, 250)"></use><use xlink:href="#transformed-62817" transform="translate(0, 250)"></use><use xlink:href="#transformed-62817" transform="translate(250, 250)"></use><use xlink:href="#transformed-76437" transform="translate(-250, -250)"></use><use xlink:href="#transformed-76437" transform="translate(0, -250)"></use><use xlink:href="#transformed-76437" transform="translate(250, -250)"></use><use xlink:href="#transformed-76437" transform="translate(-250, 0)"></use><use xlink:href="#transformed-76437" transform="translate(0, 0)"></use><use xlink:href="#transformed-76437" transform="translate(250, 0)"></use><use xlink:href="#transformed-76437" transform="translate(-250, 250)"></use><use xlink:href="#transformed-76437" transform="translate(0, 250)"></use><use xlink:href="#transformed-76437" transform="translate(250, 250)"></use><use xlink:href="#transformed-41038" transform="translate(-250, -250)"></use><use xlink:href="#transformed-41038" transform="translate(0, -250)"></use><use xlink:href="#transformed-41038" transform="translate(250, -250)"></use><use xlink:href="#transformed-41038" transform="translate(-250, 0)"></use><use xlink:href="#transformed-41038" transform="translate(0, 0)"></use><use xlink:href="#transformed-41038" transform="translate(250, 0)"></use><use xlink:href="#transformed-41038" transform="translate(-250, 250)"></use><use xlink:href="#transformed-41038" transform="translate(0, 250)"></use><use xlink:href="#transformed-41038" transform="translate(250, 250)"></use><use xlink:href="#transformed-85907" transform="translate(-250, -250)"></use><use xlink:href="#transformed-85907" transform="translate(0, -250)"></use><use xlink:href="#transformed-85907" transform="translate(250, -250)"></use><use xlink:href="#transformed-85907" transform="translate(-250, 0)"></use><use xlink:href="#transformed-85907" transform="translate(0, 0)"></use><use xlink:href="#transformed-85907" transform="translate(250, 0)"></use><use xlink:href="#transformed-85907" transform="translate(-250, 250)"></use><use xlink:href="#transformed-85907" transform="translate(0, 250)"></use><use xlink:href="#transformed-85907" transform="translate(250, 250)"></use><use xlink:href="#transformed-57266" transform="translate(-250, -250)"></use><use xlink:href="#transformed-57266" transform="translate(0, -250)"></use><use xlink:href="#transformed-57266" transform="translate(250, -250)"></use><use xlink:href="#transformed-57266" transform="translate(-250, 0)"></use><use xlink:href="#transformed-57266" transform="translate(0, 0)"></use><use xlink:href="#transformed-57266" transform="translate(250, 0)"></use><use xlink:href="#transformed-57266" transform="translate(-250, 250)"></use><use xlink:href="#transformed-57266" transform="translate(0, 250)"></use><use xlink:href="#transformed-57266" transform="translate(250, 250)"></use><use xlink:href="#transformed-54233" transform="translate(-250, -250)"></use><use xlink:href="#transformed-54233" transform="translate(0, -250)"></use><use xlink:href="#transformed-54233" transform="translate(250, -250)"></use><use xlink:href="#transformed-54233" transform="translate(-250, 0)"></use><use xlink:href="#transformed-54233" transform="translate(0, 0)"></use><use xlink:href="#transformed-54233" transform="translate(250, 0)"></use><use xlink:href="#transformed-54233" transform="translate(-250, 250)"></use><use xlink:href="#transformed-54233" transform="translate(0, 250)"></use><use xlink:href="#transformed-54233" transform="translate(250, 250)"></use><use xlink:href="#transformed-77101" transform="translate(-250, -250)"></use><use xlink:href="#transformed-77101" transform="translate(0, -250)"></use><use xlink:href="#transformed-77101" transform="translate(250, -250)"></use><use xlink:href="#transformed-77101" transform="translate(-250, 0)"></use><use xlink:href="#transformed-77101" transform="translate(0, 0)"></use><use xlink:href="#transformed-77101" transform="translate(250, 0)"></use><use xlink:href="#transformed-77101" transform="translate(-250, 250)"></use><use xlink:href="#transformed-77101" transform="translate(0, 250)"></use><use xlink:href="#transformed-77101" transform="translate(250, 250)"></use><use xlink:href="#transformed-25727" transform="translate(-250, -250)"></use><use xlink:href="#transformed-25727" transform="translate(0, -250)"></use><use xlink:href="#transformed-25727" transform="translate(250, -250)"></use><use xlink:href="#transformed-25727" transform="translate(-250, 0)"></use><use xlink:href="#transformed-25727" transform="translate(0, 0)"></use><use xlink:href="#transformed-25727" transform="translate(250, 0)"></use><use xlink:href="#transformed-25727" transform="translate(-250, 250)"></use><use xlink:href="#transformed-25727" transform="translate(0, 250)"></use><use xlink:href="#transformed-25727" transform="translate(250, 250)"></use><use xlink:href="#transformed-38590" transform="translate(-250, -250)"></use><use xlink:href="#transformed-38590" transform="translate(0, -250)"></use><use xlink:href="#transformed-38590" transform="translate(250, -250)"></use><use xlink:href="#transformed-38590" transform="translate(-250, 0)"></use><use xlink:href="#transformed-38590" transform="translate(0, 0)"></use><use xlink:href="#transformed-38590" transform="translate(250, 0)"></use><use xlink:href="#transformed-38590" transform="translate(-250, 250)"></use><use xlink:href="#transformed-38590" transform="translate(0, 250)"></use><use xlink:href="#transformed-38590" transform="translate(250, 250)"></use><use xlink:href="#transformed-09654" transform="translate(-250, -250)"></use><use xlink:href="#transformed-09654" transform="translate(0, -250)"></use><use xlink:href="#transformed-09654" transform="translate(250, -250)"></use><use xlink:href="#transformed-09654" transform="translate(-250, 0)"></use><use xlink:href="#transformed-09654" transform="translate(0, 0)"></use><use xlink:href="#transformed-09654" transform="translate(250, 0)"></use><use xlink:href="#transformed-09654" transform="translate(-250, 250)"></use><use xlink:href="#transformed-09654" transform="translate(0, 250)"></use><use xlink:href="#transformed-09654" transform="translate(250, 250)"></use><use xlink:href="#transformed-01642" transform="translate(-250, -250)"></use><use xlink:href="#transformed-01642" transform="translate(0, -250)"></use><use xlink:href="#transformed-01642" transform="translate(250, -250)"></use><use xlink:href="#transformed-01642" transform="translate(-250, 0)"></use><use xlink:href="#transformed-01642" transform="translate(0, 0)"></use><use xlink:href="#transformed-01642" transform="translate(250, 0)"></use><use xlink:href="#transformed-01642" transform="translate(-250, 250)"></use><use xlink:href="#transformed-01642" transform="translate(0, 250)"></use><use xlink:href="#transformed-01642" transform="translate(250, 250)"></use><use xlink:href="#transformed-86226" transform="translate(-250, -250)"></use><use xlink:href="#transformed-86226" transform="translate(0, -250)"></use><use xlink:href="#transformed-86226" transform="translate(250, -250)"></use><use xlink:href="#transformed-86226" transform="translate(-250, 0)"></use><use xlink:href="#transformed-86226" transform="translate(0, 0)"></use><use xlink:href="#transformed-86226" transform="translate(250, 0)"></use><use xlink:href="#transformed-86226" transform="translate(-250, 250)"></use><use xlink:href="#transformed-86226" transform="translate(0, 250)"></use><use xlink:href="#transformed-86226" transform="translate(250, 250)"></use><use xlink:href="#transformed-82527" transform="translate(-250, -250)"></use><use xlink:href="#transformed-82527" transform="translate(0, -250)"></use><use xlink:href="#transformed-82527" transform="translate(250, -250)"></use><use xlink:href="#transformed-82527" transform="translate(-250, 0)"></use><use xlink:href="#transformed-82527" transform="translate(0, 0)"></use><use xlink:href="#transformed-82527" transform="translate(250, 0)"></use><use xlink:href="#transformed-82527" transform="translate(-250, 250)"></use><use xlink:href="#transformed-82527" transform="translate(0, 250)"></use><use xlink:href="#transformed-82527" transform="translate(250, 250)"></use></svg>