<svg enable-background="new 0 0 1000 1000" viewBox="0 0 1000 1000" xmlns="http://www.w3.org/2000/svg"><path d="m1273.5 4970.1c-558.7-119.9-1017.9-581.6-1135.2-1145.4-30.6-153.1-38.3-704.1-38.3-3727.2 0-3451.6 2.6-3553.7 51-3745 71.4-280.6 186.2-484.7 395.4-693.9 206.6-209.2 456.6-347 739.8-405.6 267.9-56.1 7155.8-56.1 7423.7 0 568.9 119.9 1028.1 579.1 1148 1148 56.1 267.9 56.1 7155.8 0 7423.7-58.7 283.2-196.4 533.2-405.6 739.8-209.2 209.2-413.3 324-693.9 395.4-191.3 48.5-290.8 51-3757.7 48.5-2951.7 0-3589.4-7.7-3727.2-38.3z" transform="matrix(.1 0 0 -.1 0 511)"/></svg>